# xmcd
#
# Track frame offsets: 
#        182
#        21542
#        42737
#        56762
#        75650
#        93107
#        112995
#        134042
#        148932
#        167652
#        183195
#        199837
#        217607
#        243382
#        264447
#        280987
#        298957
#        313577
#
# Disc length: 4475 seconds
#
# Revision: 3
# Processed by: cddbd v1.5.2PL0 Copyright (c) Steve Scherf et al.
# Submitted via: ExactAudioCopy v0.95b2
#
DISCID=14117912
DTITLE=Various Artist - Rapper's Paradise 5 [CD 2)
DYEAR=1998
DGENRE=
TTITLE0=Puff Daddy and The Family - It`s All About The Benjamins
TTITLE1=Blackstreet - Fix
TTITLE2=Foxy Brown Feat. Method Man - Ill Na Na
TTITLE3=Coolio - The Devil Is Dope
TTITLE4=Killah Priest - One Step
TTITLE5=Rakim - Stay A While
TTITLE6=The Lox - If You Think I`m Jiggy
TTITLE7=Crucial Conflict - Ride The Rodeo
TTITLE8=Mobb Deep - Rare Species
TTITLE9=McGruff - Before We Start
TTITLE10=Mystikal - The Man Right Chea
TTITLE11=GP Wu - Party People
TTITLE12=Tha Alkaholics - All Night
TTITLE13=Tracey Lee - Big Will
TTITLE14=The Roots - Concerto Of The Desperado
TTITLE15=Dr. Dre Feat. Snoop Doggy Dogg - Nuthin' But A "G" Thang
TTITLE16=KRS-One - The MC
TTITLE17=Wu-Tang Clan - A Better Tomorrow
EXTD=
EXTT0=
EXTT1=
EXTT2=
EXTT3=
EXTT4=
EXTT5=
EXTT6=
EXTT7=
EXTT8=
EXTT9=
EXTT10=
EXTT11=
EXTT12=
EXTT13=
EXTT14=
EXTT15=
EXTT16=
EXTT17=
PLAYORDER=
